<svg class="svg-icon" style="width: 1em;height: 1em;vertical-align: middle;fill: hsl(126, 100%, 66%);overflow: hidden;" viewBox="0 0 1024 1024" version="1.1" xmlns="http://www.w3.org/2000/svg"><path d="M512 872.106667a20.053333 20.053333 0 0 1-14.933333-6.4l-170.666667-170.666667a20.48 20.48 0 0 1 0-29.866667 21.333333 21.333333 0 0 1 30.293333 0l132.266667 132.266667V345.6a21.333333 21.333333 0 0 1 42.666667 0v505.173333a21.333333 21.333333 0 0 1-13.226667 19.626667 18.346667 18.346667 0 0 1-6.4 1.706667z"  /><path d="M512 872.106667a20.053333 20.053333 0 0 1-14.933333-6.4 21.333333 21.333333 0 0 1 0-30.293334l170.666666-168.533333a20.906667 20.906667 0 0 1 29.866667 29.866667l-170.666667 170.666666a20.053333 20.053333 0 0 1-14.933333 4.693334zM682.666667 366.933333H341.333333a21.333333 21.333333 0 0 1-21.333333-21.333333 21.76 21.76 0 0 1 21.333333-21.333333h341.333334a21.333333 21.333333 0 0 1 21.333333 21.333333 21.333333 21.333333 0 0 1-21.333333 21.333333zM682.666667 194.56H341.333333a21.333333 21.333333 0 0 1-21.333333-21.333333 21.76 21.76 0 0 1 21.333333-21.333334h341.333334a21.333333 21.333333 0 0 1 21.333333 21.333334 21.333333 21.333333 0 0 1-21.333333 21.333333z"  /></svg>