<svg class="svg-icon" style="width: 1em; height: 1em;vertical-align: middle;fill: hsl(126, 100%, 66%);overflow: hidden;" viewBox="0 0 1024 1024" version="1.1" xmlns="http://www.w3.org/2000/svg"><path d="M715.4 769.1c-74.4 0-135-60.5-135-135s60.5-135 135-135 135 60.5 135 135-60.6 135-135 135z m0-237.9c-56.8 0-103 46.2-103 103s46.2 103 103 103 103-46.2 103-103-46.2-103-103-103z" fill="" /><path d="M857.7 822.1c-4.1 0-8.2-1.6-11.3-4.7L773 744.1c-6.3-6.2-6.3-16.4 0-22.6 6.2-6.3 16.4-6.3 22.6 0l73.4 73.3c6.3 6.2 6.3 16.4 0 22.6-3.1 3.1-7.2 4.7-11.3 4.7z" fill="" /><path d="M746 820.7v23.5c0 3-2.4 5.4-5.4 5.4H193.8c-3 0-5.4-2.4-5.4-5.4V169.7c0-3 2.4-5.4 5.4-5.4h546.7c3 0 5.4 2.4 5.4 5.4v225.2c0 7.4 5 13.8 12.2 15.6 0.1 0 0.2 0.1 0.3 0.1 10.1 2.6 19.9-5.1 19.9-15.6V169.7c0-20.9-17-37.9-37.9-37.9H193.8c-20.9 0-37.9 17-37.9 37.9v674.4c0 20.9 17 37.9 37.9 37.9h546.7c20.9 0 37.9-17 37.9-37.9v-23.5c0-10.4-9.8-18.1-19.9-15.6-0.1 0-0.2 0.1-0.3 0.1-7.2 1.8-12.2 8.2-12.2 15.6z" fill="" /><path d="M436.7 699.9H273.6c-8.8 0-16-7.2-16-16s7.2-16 16-16h163.2c8.8 0 16 7.2 16 16s-7.2 16-16.1 16zM510.7 518.7H273.6c-8.8 0-16-7.2-16-16s7.2-16 16-16h237.2c8.8 0 16 7.2 16 16s-7.2 16-16.1 16zM623.8 337.5H273.6c-8.8 0-16-7.2-16-16s7.2-16 16-16h350.2c8.8 0 16 7.2 16 16s-7.2 16-16 16z" fill="" /></svg>